<svg width="44" height="29" viewBox="0 0 44 29" fill="none" xmlns="http://www.w3.org/2000/svg">
<path d="M3.30114 23H0.505682L9.68466 5.54545H12.7273L16.1108 23H13.3153L10.767 8.71591H10.6307L3.30114 23ZM4.90341 16.1648H13.9716L13.5966 18.3807H4.52841L4.90341 16.1648ZM22.2621 15.2273L20.9837 23H18.4354L20.6172 9.90909H23.0632L22.7053 12.0398H22.8672C23.282 11.3409 23.8473 10.7841 24.5632 10.3693C25.2848 9.94886 26.1371 9.73864 27.12 9.73864C28.0064 9.73864 28.7507 9.92614 29.353 10.3011C29.9609 10.6705 30.3899 11.2216 30.6399 11.9545C30.8956 12.6875 30.9354 13.5937 30.7592 14.6733L29.3615 23H26.8132L28.1513 14.9801C28.3047 14.0312 28.1797 13.2898 27.7763 12.7557C27.3786 12.2159 26.745 11.946 25.8757 11.946C25.2848 11.946 24.7365 12.0739 24.2308 12.3295C23.7308 12.5852 23.3075 12.9602 22.9609 13.4545C22.62 13.9432 22.3871 14.5341 22.2621 15.2273Z" fill="url(#paint0_linear_31_10)"/>
<path fill-rule="evenodd" clip-rule="evenodd" d="M40.6447 0.437186C39.7897 1.1288 40.0104 3.16807 40.994 3.65944C42.261 4.29309 44.4929 2.28083 43.9025 1.03724C43.3993 -0.0245477 41.6202 -0.35257 40.6447 0.437186ZM35.1851 7.87498C32.1463 9.97617 32.2489 10.2574 35.6696 9.20486C37.7003 8.58043 37.8233 8.63971 37.3738 10.0282C35.2535 16.5748 34.23 21.0808 34.6583 21.9832C35.4367 23.6253 37.8387 23.2591 40.9468 21.0248C43.5076 19.1838 43.2397 18.9974 39.6944 20.158C38.0106 20.7093 38.1319 19.6436 40.4916 13.1378C41.6014 10.0769 42.5175 7.20247 42.5272 6.7493C42.5598 5.1935 38.0676 5.88248 35.1851 7.87498Z" fill="url(#paint1_linear_31_10)"/>
<defs>
<linearGradient id="paint0_linear_31_10" x1="3" y1="14.5" x2="31" y2="14.5" gradientUnits="userSpaceOnUse">
<stop stop-color="#DA22FF"/>
<stop offset="1" stop-color="#B22CF5"/>
</linearGradient>
<linearGradient id="paint1_linear_31_10" x1="37" y1="13" x2="43.1782" y2="12.8442" gradientUnits="userSpaceOnUse">
<stop stop-color="#B22CF5"/>
<stop offset="1" stop-color="#9733EE"/>
</linearGradient>
</defs>
</svg>
